<?xml version="1.0" encoding="UTF-8" standalone="no"?>
<svg
   width="24"
   height="24"
   viewBox="0 0 24 24"
   fill="none"
   stroke="currentColor"
   stroke-width="2"
   stroke-linecap="round"
   stroke-linejoin="round"
   class="lucide lucide-scan-eye-icon lucide-scan-eye"
   version="1.1"
   id="svg5"
   sodipodi:docname="camera_target.svg"
   inkscape:version="1.4.2 (f4327f4, 2025-05-13)"
   xmlns:inkscape="http://www.inkscape.org/namespaces/inkscape"
   xmlns:sodipodi="http://sodipodi.sourceforge.net/DTD/sodipodi-0.dtd"
   xmlns="http://www.w3.org/2000/svg"
   xmlns:svg="http://www.w3.org/2000/svg">
  <defs
     id="defs5" />
  <sodipodi:namedview
     id="namedview5"
     pagecolor="#ffffff"
     bordercolor="#000000"
     borderopacity="0.25"
     inkscape:showpageshadow="2"
     inkscape:pageopacity="0.0"
     inkscape:pagecheckerboard="0"
     inkscape:deskcolor="#d1d1d1"
     inkscape:zoom="48.625"
     inkscape:cx="12"
     inkscape:cy="12.020566"
     inkscape:window-width="2560"
     inkscape:window-height="1369"
     inkscape:window-x="-8"
     inkscape:window-y="-8"
     inkscape:window-maximized="1"
     inkscape:current-layer="svg5" />
  <path
     d="M3 7V5a2 2 0 0 1 2-2h2"
     id="path1" />
  <path
     d="M17 3h2a2 2 0 0 1 2 2v2"
     id="path2" />
  <path
     d="M21 17v2a2 2 0 0 1-2 2h-2"
     id="path3" />
  <path
     d="M7 21H5a2 2 0 0 1-2-2v-2"
     id="path4" />
  <circle
     cx="12"
     cy="12"
     r="1"
     id="circle4" />
  <path
     d="M18.944 12.33a1 1 0 0 0 0-.66 7.5 7.5 0 0 0-13.888 0 1 1 0 0 0 0 .66 7.5 7.5 0 0 0 13.888 0"
     id="path5" />
  <path
     style="fill:#6393ff;stroke-width:0.0411311;fill-opacity:1"
     d="M 11.362468,17.961715 C 9.8353497,17.840519 8.357302,17.308827 7.1156812,16.434037 6.5331373,16.023603 5.8202966,15.35594 5.3897399,14.817481 5.154095,14.52278 4.7760289,13.965551 4.5983281,13.651024 4.3813836,13.267035 4.1371256,12.723979 4.0668757,12.469452 c -0.051004,-0.184797 -0.051004,-0.754107 0,-0.938904 0.07025,-0.254527 0.3145079,-0.797583 0.5314524,-1.181572 C 4.7760289,10.034449 5.154095,9.4772195 5.3897399,9.1825193 5.8202966,8.6440601 6.5331373,7.9763971 7.1156812,7.565963 8.7089802,6.4433965 10.680177,5.8944736 12.606684,6.0368732 c 2.090154,0.1544958 4.009055,1.0514516 5.480789,2.5618962 0.374867,0.3847274 0.679853,0.7631728 0.975935,1.2109992 0.277603,0.4198784 0.399956,0.6335654 0.585462,1.0224984 0.289946,0.607905 0.320168,0.71813 0.320168,1.167733 0,0.449603 -0.03022,0.559828 -0.320168,1.167733 -0.186715,0.391468 -0.308981,0.604885 -0.585788,1.022498 -1.351677,2.039252 -3.522911,3.396426 -5.952542,3.720759 -0.529499,0.07068 -1.237664,0.09123 -1.748072,0.05072 z m 1.398457,-2.001848 c 1.362769,-0.161724 2.626977,-0.741687 3.650386,-1.674636 0.395968,-0.360968 0.776993,-0.818069 1.090611,-1.308367 0.158463,-0.247735 0.503219,-0.917682 0.503219,-0.97788 0,-0.01769 -0.08282,-0.198228 -0.184044,-0.401183 C 17.297121,10.547227 16.560962,9.7170322 15.578406,9.0686312 14.69938,8.4885505 13.749322,8.1485987 12.66838,8.0273585 c -0.291234,-0.032665 -1.045526,-0.032665 -1.33676,0 -1.070777,0.1201 -2.0622359,0.4764601 -2.9237385,1.0508792 C 7.6121413,9.6088093 7.0114739,10.220515 6.4980781,11.023136 6.3409542,11.268777 5.9948586,11.940628 5.9948586,12 c 0,0.05937 0.3460956,0.731223 0.5032195,0.976864 0.5121794,0.80072 1.1159486,1.415584 1.9098034,1.944898 0.9108805,0.607343 1.9794775,0.974163 3.1088285,1.067175 0.293889,0.0242 0.918214,0.0096 1.244215,-0.02907 z"
     id="path6" />
  <path
     style="fill:#6393ff;stroke-width:0.0411311;fill-opacity:1"
     d="M 2.7732211,7.961833 C 2.3853766,7.8629427 2.0927755,7.5441573 2.025892,7.1476265 2.009092,7.0480253 2.0047531,6.662028 2.0110508,5.827345 2.0208887,4.5234651 2.0220533,4.5098715 2.1606508,4.0811465 2.4521256,3.179525 3.1532252,2.4714888 4.0516187,2.1714697 4.5006912,2.0215016 4.5069405,2.0209422 5.8435144,2.0110641 c 0.8058908,-0.00596 1.2349821,-0.00159 1.3161954,0.013395 0.5645584,0.104163 0.9381828,0.6672673 0.7985177,1.2034781 -0.089669,0.3442633 -0.3312562,0.6030584 -0.6677391,0.7153021 -0.129367,0.043154 -0.1728249,0.044954 -1.3481731,0.055817 l -1.2144971,0.011226 -0.163395,0.080721 C 4.3484584,4.1976948 4.1976958,4.348457 4.0910034,4.5644216 l -0.080721,0.1633931 -0.01163,1.2144989 C 3.9881936,7.0345401 3.98331,7.1681999 3.9501459,7.2699229 3.8462942,7.5884617 3.6340551,7.8140134 3.3316195,7.9272457 3.1798368,7.9840734 2.9228711,7.9999899 2.7732211,7.961833 Z"
     id="path7" />
  <path
     style="fill:#6393ff;stroke-width:0.0411311;fill-opacity:1"
     d="m 11.771183,13.97456 c -0.823039,-0.10232 -1.485964,-0.688222 -1.69868,-1.501316 -0.073149,-0.279609 -0.073149,-0.666879 0,-0.946488 0.191439,-0.731761 0.723026,-1.263302 1.454253,-1.454126 0.2671,-0.0697 0.646809,-0.07345 0.911434,-0.009 0.748282,0.182267 1.29464,0.719018 1.489307,1.463119 0.07315,0.279609 0.07315,0.666879 0,0.946488 -0.190164,0.726888 -0.730685,1.269637 -1.44397,1.44992 -0.213776,0.05403 -0.515836,0.07583 -0.712344,0.0514 z"
     id="path8" />
  <path
     style="fill:#6393ff;stroke-width:0.0411311;fill-opacity:1"
     d="M 20.763236,7.9572123 C 20.425835,7.8664742 20.16707,7.6221894 20.05699,7.2904884 20.014153,7.1614094 20.012233,7.1150462 20.001172,5.9423169 L 19.989717,4.7278215 19.908997,4.5644249 C 19.802305,4.3484572 19.651544,4.1976962 19.435577,4.0910034 L 19.272182,4.0102828 18.057685,3.9990568 C 16.882337,3.9881928 16.838879,3.9863935 16.709512,3.9432393 16.374928,3.8316293 16.130936,3.5702571 16.041773,3.2279372 15.902107,2.6917264 16.275732,2.1286221 16.84029,2.0244591 c 0.08121,-0.014984 0.510305,-0.019351 1.316196,-0.013395 1.321866,0.00977 1.332719,0.01069 1.762367,0.1495867 0.901769,0.2915224 1.610983,0.9939102 1.909344,1.8909679 0.150365,0.4520884 0.152483,0.4755287 0.161431,1.7867101 0.0056,0.8204589 9.28e-4,1.2117847 -0.01564,1.3099986 -0.09686,0.5742534 -0.666962,0.9551291 -1.210754,0.8088849 z"
     id="path9" />
  <path
     style="fill:#6393ff;stroke-width:0.0411311;fill-opacity:1"
     d="m 16.8135,21.973092 c -0.05026,-0.01022 -0.159967,-0.05115 -0.24379,-0.09096 -0.414223,-0.196713 -0.641412,-0.674415 -0.527937,-1.110073 0.08916,-0.342327 0.33318,-0.603719 0.667739,-0.71529 0.129242,-0.0431 0.173578,-0.04496 1.33676,-0.05602 1.324955,-0.01261 1.258122,-0.006 1.493662,-0.147581 0.200979,-0.120805 0.36937,-0.347275 0.431378,-0.580163 0.02209,-0.08298 0.02839,-0.335255 0.02908,-1.165035 4.83e-4,-0.582519 0.0094,-1.124678 0.01982,-1.204796 0.0514,-0.395429 0.28558,-0.693763 0.652256,-0.830954 0.566803,-0.212069 1.198113,0.16634 1.301656,0.780217 0.01675,0.09931 0.02131,0.485432 0.01548,1.309998 -0.0092,1.295753 -0.01198,1.328434 -0.151553,1.760352 -0.292099,0.903899 -1.011365,1.623165 -1.915264,1.915264 -0.437985,0.141537 -0.45768,0.14316 -1.804534,0.148664 -0.667352,0.0027 -1.254491,-0.0034 -1.304752,-0.01362 z"
     id="path10" />
  <path
     style="fill:#6393ff;stroke-width:0.0411311;fill-opacity:1"
     d="m 4.7609254,21.980993 c -1.2291855,-0.124375 -2.230566,-0.918517 -2.6002746,-2.06214 -0.1385975,-0.428724 -0.1397621,-0.442318 -0.1496,-1.746198 -0.0063,-0.834683 -0.00196,-1.22068 0.014841,-1.320281 0.1040085,-0.616633 0.7328203,-0.991202 1.3070849,-0.7786 0.2288129,0.08471 0.4449634,0.274195 0.5492534,0.481496 0.1037174,0.206163 0.1040507,0.210465 0.1164225,1.502416 l 0.01163,1.214499 0.080721,0.163393 c 0.1066937,0.215968 0.2574552,0.366728 0.4734223,0.473419 l 0.1633976,0.08072 1.2144944,0.0113 c 1.1745002,0.01093 1.2188967,0.01277 1.3481707,0.05582 0.336333,0.112007 0.5780595,0.370925 0.6677391,0.715228 0.1385147,0.531794 -0.2324628,1.097065 -0.788798,1.201918 -0.1017003,0.01917 -2.2272162,0.02536 -2.4085041,0.007 z"
     id="path11" />
</svg>
