<?xml version="1.0" encoding="UTF-8" standalone="no"?>
<svg
   width="24"
   height="24"
   viewBox="0 0 24 24"
   fill="none"
   stroke="currentColor"
   stroke-width="2"
   stroke-linecap="round"
   stroke-linejoin="round"
   class="lucide lucide-boxes-icon lucide-boxes"
   version="1.1"
   id="svg12"
   sodipodi:docname="state_machine_icon.svg"
   inkscape:version="1.4.2 (f4327f4, 2025-05-13)"
   xmlns:inkscape="http://www.inkscape.org/namespaces/inkscape"
   xmlns:sodipodi="http://sodipodi.sourceforge.net/DTD/sodipodi-0.dtd"
   xmlns="http://www.w3.org/2000/svg"
   xmlns:svg="http://www.w3.org/2000/svg">
  <defs
     id="defs12" />
  <sodipodi:namedview
     id="namedview12"
     pagecolor="#ffffff"
     bordercolor="#000000"
     borderopacity="0.25"
     inkscape:showpageshadow="2"
     inkscape:pageopacity="0.0"
     inkscape:pagecheckerboard="0"
     inkscape:deskcolor="#d1d1d1"
     inkscape:zoom="48.625"
     inkscape:cx="12"
     inkscape:cy="12"
     inkscape:window-width="2560"
     inkscape:window-height="1369"
     inkscape:window-x="-8"
     inkscape:window-y="-8"
     inkscape:window-maximized="1"
     inkscape:current-layer="svg12" />
  <path
     d="M2.97 12.92A2 2 0 0 0 2 14.63v3.24a2 2 0 0 0 .97 1.71l3 1.8a2 2 0 0 0 2.06 0L12 19v-5.5l-5-3-4.03 2.42Z"
     id="path1" />
  <path
     d="m7 16.5-4.74-2.85"
     id="path2" />
  <path
     d="m7 16.5 5-3"
     id="path3" />
  <path
     d="M7 16.5v5.17"
     id="path4" />
  <path
     d="M12 13.5V19l3.97 2.38a2 2 0 0 0 2.06 0l3-1.8a2 2 0 0 0 .97-1.71v-3.24a2 2 0 0 0-.97-1.71L17 10.5l-5 3Z"
     id="path5" />
  <path
     d="m17 16.5-5-3"
     id="path6" />
  <path
     d="m17 16.5 4.74-2.85"
     id="path7" />
  <path
     d="M17 16.5v5.17"
     id="path8" />
  <path
     d="M7.97 4.42A2 2 0 0 0 7 6.13v4.37l5 3 5-3V6.13a2 2 0 0 0-.97-1.71l-3-1.8a2 2 0 0 0-2.06 0l-3 1.8Z"
     id="path9" />
  <path
     d="M12 8 7.26 5.15"
     id="path10" />
  <path
     d="m12 8 4.74-2.85"
     id="path11" />
  <path
     d="M12 13.5V8"
     id="path12" />
  <path
     style="fill:#ffffff;stroke-width:0.0411311"
     d="M 6.6838046,22.640228 C 6.2851404,22.579192 5.9654817,22.48486 5.6935461,22.348 5.4919979,22.246565 2.4114606,20.399609 2.2422908,20.278778 1.7252881,19.909502 1.314145,19.321517 1.1294642,18.687299 1.0171115,18.301466 1.0158297,18.270732 1.0235089,16.146848 c 0.00692,-1.912855 0.00805,-1.960586 0.050757,-2.134089 0.1901356,-0.772475 0.5692294,-1.350748 1.1769066,-1.795261 0.073106,-0.05348 0.9496414,-0.5873 1.9478559,-1.186272 l 1.8149353,-1.0890419 0.00685,-2.1124802 c 0.00675,-2.0818106 0.0075,-2.1152344 0.051381,-2.3021878 C 6.1693892,5.113441 6.3371192,4.7278147 6.553206,4.4216341 6.7074114,4.203135 7.0387611,3.864489 7.2332019,3.7266645 7.4128019,3.5993596 10.482305,1.7570829 10.683805,1.6556567 10.891017,1.551355 11.156101,1.4597536 11.410007,1.404713 c 0.302093,-0.065486 0.877893,-0.065486 1.179986,0 0.248839,0.053942 0.517443,0.1459916 0.71592,0.2453428 0.288276,0.1443022 3.361531,2.0027275 3.54008,2.1407195 0.538719,0.416349 0.918085,1.0259916 1.083607,1.7413584 0.04165,0.1800152 0.04301,0.242982 0.04963,2.2965308 l 0.0068,2.1114408 1.77305,1.0645467 c 0.975177,0.585501 1.839226,1.108793 1.920108,1.162872 0.313522,0.209625 0.595782,0.49788 0.829028,0.846631 0.176389,0.263741 0.322871,0.614093 0.417514,0.998604 0.04271,0.173503 0.04384,0.221234 0.05076,2.134089 0.0077,2.123884 0.0064,2.154618 -0.105956,2.540451 -0.18763,0.644343 -0.599955,1.228609 -1.132747,1.605105 -0.193411,0.136673 -3.205701,1.943107 -3.413882,2.047263 -0.217933,0.109036 -0.479749,0.199944 -0.736485,0.25572 -0.299167,0.065 -0.878028,0.06499 -1.172777,-2.2e-5 -0.252648,-0.05572 -0.53548,-0.151817 -0.723128,-0.245691 -0.07918,-0.03961 -0.936815,-0.547471 -1.90586,-1.128583 C 12.816611,20.639979 12.013066,20.164524 12,20.164524 c -0.01307,0 -0.816611,0.475445 -1.785657,1.056544 -0.9690453,0.5811 -1.8216068,1.086545 -1.8945807,1.123212 -0.1953707,0.09817 -0.487292,0.199117 -0.7153125,0.247364 -0.1957769,0.04143 -0.769615,0.07171 -0.9206452,0.04858 z M 6.0104088,18.650085 6.0051414,17.053383 4.503856,16.150861 3.0025707,15.248339 l -0.00541,1.362977 c -0.00366,0.921407 0.00183,1.39804 0.016936,1.471205 0.03408,0.165071 0.1477578,0.371989 0.2711446,0.493543 0.083063,0.08183 0.4253664,0.298188 1.4045812,0.887792 0.7121135,0.428777 1.3017495,0.780345 1.3103021,0.781263 0.00855,9.17e-4 0.01318,-0.716848 0.010283,-1.595034 z m 3.4805938,0.702397 c 0.8087404,-0.483936 1.4820624,-0.890591 1.4962714,-0.903678 0.0204,-0.01878 0.02473,-0.358064 0.02057,-1.611602 L 11.002571,15.249395 9.5012853,16.15016 8,17.050926 7.99473,18.650148 c -0.0029,0.879573 0.00173,1.595396 0.010283,1.59072 0.00855,-0.0047 0.6772473,-0.40445 1.4859877,-0.888386 z m 6.5012734,-2.299024 c -0.01004,-0.01004 -0.687995,-0.420052 -1.506555,-0.911127 l -1.488292,-0.892864 -0.0053,1.587478 c -0.003,0.905443 0.0026,1.595324 0.01299,1.605741 0.01005,0.01005 0.687994,0.420052 1.506554,0.911127 L 16,20.246677 16.0053,18.659199 c 0.003,-0.905443 -0.0026,-1.595324 -0.01299,-1.605741 z m 3.301769,2.418244 c 0.963939,-0.578244 1.322174,-0.803687 1.4106,-0.887711 0.132501,-0.125905 0.245207,-0.326856 0.281257,-0.50147 0.01511,-0.07316 0.02059,-0.549842 0.01694,-1.471363 l -0.0054,-1.363134 -1.501285,0.90368 -1.501285,0.90368 -0.0053,1.595701 c -0.0029,0.877636 -0.0013,1.595702 0.0036,1.595702 0.0049,0 0.590257,-0.348788 1.300897,-0.775085 z m 0.766538,-5.970417 c 0.0013,-0.01934 -3.04557,-1.840631 -3.06848,-1.834205 -0.03597,0.01009 -3.057556,1.822707 -3.057569,1.834205 -6e-6,0.0057 0.690098,0.423571 1.533566,0.928701 l 1.533578,0.918417 1.529107,-0.918417 c 0.841008,-0.50513 1.529418,-0.923045 1.529798,-0.928701 z M 8.5550024,14.416452 c 0.8307621,-0.497686 1.5104766,-0.909511 1.5104756,-0.915167 0,-0.0057 -0.6899675,-0.423485 -1.5332608,-0.92851 L 6.9989567,11.654548 5.4686299,12.572764 c -0.8416796,0.505018 -1.5299196,0.922848 -1.5294221,0.92851 0.00223,0.02538 3.036509,1.830213 3.0689162,1.825433 0.020021,-0.003 0.7161162,-0.412568 1.5468784,-0.910255 z M 11.012368,10.154242 11.011882,8.5552699 9.5137553,7.655527 C 8.6897855,7.1606684 8.0097983,6.7557841 8.0026727,6.7557841 c -0.00713,0 -0.012955,0.7158679 -0.012955,1.5908176 V 9.9374196 L 9.496144,10.843569 c 0.828535,0.498382 1.50874,0.906936 1.511568,0.907897 0.0028,9.61e-4 0.0049,-0.71779 0.0047,-1.597224 z m 4.997915,-1.8076489 c 0,-0.874945 -0.0058,-1.590809 -0.01296,-1.590809 -0.0071,0 -0.68696,0.4048843 -1.510736,0.8997429 l -1.497775,0.8997429 -8.32e-4,1.5979501 -8.32e-4,1.597949 1.511568,-0.906883 1.511568,-0.9068838 z M 13.526229,5.9311772 c 0.828955,-0.498778 1.514464,-0.9137123 1.523354,-0.9220763 0.02142,-0.02015 -2.545725,-1.5603287 -2.707758,-1.6245423 -0.177742,-0.070439 -0.501638,-0.071802 -0.678169,-0.00285 -0.116055,0.045328 -2.6916992,1.5778256 -2.7090944,1.6119002 -0.00898,0.017596 2.9963944,1.8395334 3.0395344,1.8426435 0.01372,9.89e-4 0.703179,-0.4062928 1.532133,-0.9050708 z"
     id="path13" />
</svg>
