<?xml version="1.0" encoding="UTF-8" standalone="no"?>
<svg
   width="24"
   height="24"
   viewBox="0 0 24 24"
   fill="none"
   stroke="currentColor"
   stroke-width="2"
   stroke-linecap="round"
   stroke-linejoin="round"
   class="lucide lucide-box-icon lucide-box"
   version="1.1"
   id="svg3"
   sodipodi:docname="state_icon.svg"
   inkscape:version="1.4.2 (f4327f4, 2025-05-13)"
   xmlns:inkscape="http://www.inkscape.org/namespaces/inkscape"
   xmlns:sodipodi="http://sodipodi.sourceforge.net/DTD/sodipodi-0.dtd"
   xmlns="http://www.w3.org/2000/svg"
   xmlns:svg="http://www.w3.org/2000/svg">
  <defs
     id="defs3" />
  <sodipodi:namedview
     id="namedview3"
     pagecolor="#ffffff"
     bordercolor="#000000"
     borderopacity="0.25"
     inkscape:showpageshadow="2"
     inkscape:pageopacity="0.0"
     inkscape:pagecheckerboard="0"
     inkscape:deskcolor="#d1d1d1"
     inkscape:zoom="48.625"
     inkscape:cx="12"
     inkscape:cy="12"
     inkscape:window-width="2560"
     inkscape:window-height="1369"
     inkscape:window-x="-8"
     inkscape:window-y="-8"
     inkscape:window-maximized="1"
     inkscape:current-layer="svg3" />
  <path
     d="M21 8a2 2 0 0 0-1-1.73l-7-4a2 2 0 0 0-2 0l-7 4A2 2 0 0 0 3 8v8a2 2 0 0 0 1 1.73l7 4a2 2 0 0 0 2 0l7-4A2 2 0 0 0 21 16Z"
     id="path1" />
  <path
     d="m3.3 7 8.7 5 8.7-5"
     id="path2" />
  <path
     d="M12 22V12"
     id="path3" />
  <path
     style="fill:#ffffff;stroke-width:0.0411311"
     d="M 11.660668,22.969438 C 11.305582,22.917178 10.969899,22.817176 10.70437,22.684551 10.471539,22.568259 3.4925057,18.580343 3.3213368,18.465784 2.6719127,18.031144 2.2085984,17.314475 2.0529218,16.503759 2.017376,16.318648 2.0154242,16.084212 2.0154242,12 c 0,-4.0749281 0.00202,-4.3189999 0.037277,-4.502487 C 2.2097164,6.6803426 2.6677841,5.9736376 3.3281498,5.5297559 3.533988,5.3913964 10.639676,1.3382853 10.797012,1.2694886 c 0.186993,-0.081764 0.429301,-0.1581898 0.647718,-0.2042944 0.245886,-0.051903 0.863925,-0.051991 1.11054,-1.591e-4 0.261056,0.054868 0.541881,0.1509239 0.760925,0.2602751 0.250164,0.1248863 7.180491,4.0854629 7.35299,4.2021218 0.665936,0.4503638 1.120836,1.1515465 1.278114,1.970081 0.03526,0.1834871 0.03728,0.4275589 0.03728,4.502487 0,4.074928 -0.002,4.319 -0.03728,4.502487 -0.157337,0.818843 -0.611977,1.519464 -1.278611,1.970398 -0.173152,0.117126 -7.104137,4.077873 -7.352493,4.201618 -0.414846,0.206704 -0.750299,0.286737 -1.244216,0.296853 -0.192287,0.0039 -0.377377,0.0031 -0.411311,-0.0019 z M 10.993075,12.568397 C 10.98214,12.557462 9.4065386,11.648156 7.4917382,10.547717 L 4.0102828,8.5469201 4.0049019,12.355722 c -0.00529,3.743085 -0.00468,3.811124 0.035279,3.943333 0.049109,0.162484 0.1715525,0.357876 0.2841051,0.453367 0.045509,0.03861 1.5667395,0.918677 3.3805135,1.955704 l 3.2977715,1.885505 0.0052,-4.002676 c 0.0033,-2.556466 -0.002,-4.00986 -0.01469,-4.022558 z m 5.361151,6.106502 c 1.778372,-1.016083 3.272155,-1.880594 3.319518,-1.921135 0.11597,-0.09927 0.236594,-0.290995 0.286075,-0.454709 0.03996,-0.132209 0.04057,-0.200247 0.03528,-3.943069 l -0.0054,-3.8085386 -3.496144,2.0093986 -3.496144,2.009399 -0.0052,4.01714 -0.0052,4.01714 0.06689,-0.0391 c 0.03679,-0.02151 1.521921,-0.870442 3.300293,-1.886525 z M 15.515984,8.8431877 c 1.910911,-1.0971723 3.474481,-1.9994859 3.474599,-2.0051414 4.34e-4,-0.020699 -6.572223,-3.7605133 -6.671817,-3.796236 -0.15141,-0.054308 -0.496074,-0.051755 -0.647815,0.0048 -0.06221,0.023186 -1.587029,0.8844955 -3.3884842,1.9140216 -2.3750665,1.3573428 -3.2682227,1.8775056 -3.2493573,1.8923846 0.014309,0.011286 0.6044226,0.3525166 1.3113635,0.7582912 0.7069409,0.4057746 2.2616967,1.2997837 3.4550129,1.9866869 1.1933161,0.6869024 2.1859661,1.2469204 2.2058891,1.2444834 0.01992,-0.0024 1.599697,-0.9021167 3.510609,-1.9992889 z"
     id="path4" />
</svg>
